<?xml version="1.0" standalone="no"?>
<!DOCTYPE svg PUBLIC "-//W3C//DTD SVG 20010904//EN"
 "http://www.w3.org/TR/2001/REC-SVG-20010904/DTD/svg10.dtd">
<svg version="1.0" xmlns="http://www.w3.org/2000/svg"
 width="889.000000pt" height="500.000000pt" viewBox="0 0 889.000000 500.000000"
 preserveAspectRatio="xMidYMid meet">

<g transform="translate(0.000000,500.000000) scale(0.100000,-0.100000)"
fill="#000000" stroke="none">
<path d="M4195 4038 c-85 -9 -340 -63 -359 -76 -6 -4 41 -9 104 -12 109 -5
116 -6 125 -29 9 -22 14 -23 65 -16 30 4 174 10 320 15 226 6 275 10 332 28
37 11 92 24 123 27 31 4 54 9 51 12 -9 10 -138 35 -246 49 -125 15 -388 17
-515 2z"/>
<path d="M1764 3981 c-2 -2 17 -26 41 -52 l46 -49 -3 -459 -3 -460 -42 -43
c-24 -24 -43 -47 -43 -51 0 -4 151 -7 336 -7 l336 0 64 62 c35 33 64 65 64 70
0 4 -110 8 -245 8 l-245 0 0 489 0 490 -151 3 c-83 2 -153 1 -155 -1z"/>
<path d="M4855 3895 c-200 -44 -343 -149 -421 -311 -69 -143 -67 -313 5 -459
100 -202 368 -322 671 -300 135 10 271 26 297 36 l23 9 0 260 0 260 -151 0
-151 0 51 -61 51 -61 0 -133 0 -134 -42 -12 c-65 -19 -222 -16 -293 5 -266 78
-388 402 -231 609 40 53 123 104 196 123 83 21 233 14 345 -16 120 -33 110
-40 113 76 l3 102 -64 11 c-86 15 -328 13 -402 -4z"/>
<path d="M3478 3809 l-128 -71 0 -74 c0 -70 1 -74 23 -74 12 1 51 23 87 50 36
27 104 71 152 96 l87 46 -37 49 c-20 27 -41 49 -47 49 -5 0 -67 -32 -137 -71z"/>
<path d="M3690 3873 c0 -4 18 -26 41 -49 l41 -42 -155 -373 c-223 -538 -227
-547 -227 -558 0 -7 33 -11 88 -11 l89 0 67 173 c38 94 75 182 82 195 14 21
19 22 178 22 119 0 166 -3 174 -12 5 -7 44 -94 85 -193 l75 -180 131 -3 c72
-1 131 1 131 5 0 4 -22 30 -49 58 -46 47 -58 73 -232 499 -101 247 -189 455
-197 462 -10 11 -51 14 -168 14 -85 0 -154 -3 -154 -7z m259 -367 l49 -126
-104 0 c-57 0 -104 4 -104 8 0 7 42 115 86 221 8 19 17 32 19 29 3 -3 28 -62
54 -132z"/>
<path d="M2599 3816 l51 -55 0 -411 0 -411 -46 -50 -47 -49 363 2 363 3 29 78
28 77 -255 0 -255 0 0 160 0 159 128 3 127 3 0 80 0 80 -128 3 -128 3 3 115 3
115 150 3 c82 2 161 -1 175 -6 14 -5 46 -30 73 -56 l47 -46 0 127 0 127 -366
0 -367 0 52 -54z"/>
<path d="M5497 3831 l40 -39 6 -364 c6 -420 7 -428 89 -508 71 -70 136 -93
263 -94 109 0 176 16 240 60 20 13 38 24 40 24 3 0 5 -16 5 -35 l0 -35 140 0
c77 0 140 3 140 7 0 3 -22 30 -50 59 l-50 53 0 411 0 410 41 45 42 45 -126 0
-126 0 -3 -384 c-3 -441 1 -418 -98 -468 -42 -22 -67 -28 -119 -28 -119 0
-197 36 -231 106 -19 38 -20 61 -20 407 l0 367 -132 0 -132 0 41 -39z"/>
<path d="M6589 3818 l51 -53 -2 -417 -3 -417 -45 -46 -44 -45 341 0 341 0 63
78 62 77 -264 5 -264 5 -3 157 -3 157 128 3 128 3 3 83 3 82 -131 0 -131 0 3
118 3 117 165 0 165 0 58 -54 57 -54 0 126 0 127 -366 0 -366 0 51 -52z"/>
<path d="M5376 3788 c-3 -13 -6 -39 -6 -60 0 -32 6 -40 50 -72 28 -20 52 -36
55 -36 3 0 5 23 5 50 0 45 -4 55 -41 95 -23 25 -45 45 -49 45 -4 0 -10 -10
-14 -22z"/>
<path d="M950 3715 c0 -3 20 -30 44 -59 60 -74 87 -149 87 -247 0 -42 -5 -97
-11 -120 -51 -189 -237 -329 -435 -329 -65 0 -164 24 -237 57 -32 14 -60 24
-63 22 -2 -2 -9 -44 -16 -94 -18 -142 -7 -416 24 -545 63 -266 188 -490 381
-680 l76 -74 0 91 0 92 -61 93 c-108 167 -172 314 -210 491 -23 105 -59 339
-59 384 l0 33 120 -7 c139 -7 141 -5 80 67 -43 52 -46 58 -27 57 6 0 103 1
215 1 l203 2 39 43 c54 57 107 167 126 257 10 47 16 125 15 207 l0 133 272 2
272 3 0 60 0 60 -417 3 c-230 1 -418 0 -418 -3z"/>
<path d="M2130 3655 l0 -65 220 0 220 0 0 65 0 65 -220 0 -220 0 0 -65z"/>
<path d="M5784 3706 c-3 -7 -4 -35 -2 -62 l3 -49 158 -3 157 -3 0 66 0 65
-155 0 c-123 0 -157 -3 -161 -14z"/>
<path d="M6430 3655 l0 -65 75 0 75 0 0 65 0 65 -75 0 -75 0 0 -65z"/>
<path d="M7350 3655 l0 -65 155 0 155 0 -1 -89 c-1 -49 2 -95 6 -101 4 -7 11
-58 15 -114 5 -70 14 -118 29 -152 26 -59 81 -142 99 -149 7 -2 63 -9 125 -15
122 -11 228 -33 294 -61 35 -15 42 -23 45 -51 l3 -33 78 4 c42 2 77 1 77 -2 0
-13 -31 -286 -36 -317 -11 -69 -55 -220 -89 -309 -19 -50 -35 -97 -35 -106 0
-9 22 -43 49 -75 l50 -59 19 32 c114 185 188 435 199 672 5 106 -8 297 -24
362 l-5 22 -47 -23 c-145 -74 -314 -82 -449 -21 -65 30 -160 119 -195 184 -85
156 -71 342 36 469 21 24 37 48 37 53 0 5 -126 9 -295 9 l-295 0 0 -65z"/>
<path d="M6912 3628 l3 -33 153 -3 c83 -1 152 1 152 5 0 4 -12 20 -27 35 -27
28 -27 28 -156 28 l-128 0 3 -32z"/>
<path d="M2914 3625 c-3 -8 -3 -19 1 -25 8 -12 295 -14 295 -2 0 5 -8 16 -18
25 -26 23 -269 25 -278 2z"/>
<path d="M7305 3366 c-39 -17 -55 -37 -61 -78 -13 -80 53 -148 129 -134 99 18
130 125 57 197 -32 32 -74 37 -125 15z m85 -56 c24 -24 25 -48 4 -78 -30 -43
-94 -19 -94 35 0 32 26 63 52 63 10 0 27 -9 38 -20z"/>
<path d="M7500 3351 c17 -32 13 -157 -6 -175 -14 -15 -12 -16 25 -16 l41 0 0
44 c0 44 0 45 38 48 25 2 37 8 37 18 0 10 -12 16 -37 18 -54 5 -52 32 2 32 40
0 45 5 34 34 -5 12 -21 16 -75 16 -66 0 -69 -1 -59 -19z"/>
<path d="M7720 2901 c-198 -28 -335 -113 -405 -254 -31 -62 -35 -79 -35 -147
0 -104 35 -175 128 -260 68 -62 66 -62 472 -258 136 -66 233 -151 245 -215 15
-76 -43 -182 -130 -243 -67 -45 -142 -64 -265 -64 -162 0 -283 44 -439 160
-46 34 -85 59 -87 57 -8 -8 68 -331 80 -343 11 -12 102 -35 216 -55 36 -6 128
-12 205 -12 127 -1 148 2 225 27 185 61 324 166 386 291 27 55 29 69 29 170 0
96 -3 116 -24 160 -32 65 -111 141 -191 185 -36 19 -130 64 -210 101 -213 97
-269 126 -327 171 -88 68 -109 142 -59 213 47 69 115 95 261 102 155 8 256
-22 373 -109 l53 -39 -3 158 -3 158 -39 13 c-84 27 -354 47 -456 33z"/>
<path d="M766 2868 c4 -7 24 -34 45 -59 21 -25 43 -58 48 -73 7 -17 9 -218 6
-574 -3 -301 -5 -590 -5 -642 l0 -96 -62 -75 c-35 -42 -69 -83 -77 -92 -13
-16 13 -17 382 -17 l396 0 101 117 101 118 -290 3 c-223 2 -291 5 -291 15 0 6
0 321 0 700 l0 687 -181 0 c-141 0 -179 -3 -173 -12z"/>
<path d="M3245 2683 c-82 -7 -183 -36 -275 -80 -79 -38 -108 -59 -170 -122
-121 -123 -175 -254 -174 -426 1 -164 54 -288 173 -405 89 -88 176 -135 316
-172 80 -20 112 -23 290 -23 206 1 391 23 407 48 4 7 8 144 8 305 l0 292 -176
0 -176 0 62 -72 c57 -66 62 -74 56 -107 -3 -20 -6 -91 -6 -157 l0 -122 -27 -6
c-16 -3 -80 -9 -144 -12 -103 -6 -125 -4 -190 16 -148 44 -242 124 -308 260
-35 73 -36 78 -36 195 0 115 1 122 31 180 35 66 110 142 170 173 111 55 301
62 469 17 55 -15 109 -29 121 -32 20 -5 21 0 27 109 3 62 4 114 3 115 -2 2
-47 10 -102 18 -90 13 -246 17 -349 8z"/>
<path d="M1770 2644 c0 -3 18 -28 40 -54 22 -26 44 -59 50 -74 7 -19 8 -168 4
-454 l-7 -427 -55 -60 -56 -60 258 -3 c142 -1 369 -1 506 0 l249 3 -75 78 -75
77 -259 0 -259 0 -3 180 -3 180 143 0 142 0 0 95 0 95 -140 0 -140 0 0 125 0
125 199 0 200 0 35 -33 35 -33 3 100 c2 56 2 111 0 124 l-3 22 -395 0 c-217 0
-394 -3 -394 -6z"/>
<path d="M3920 2642 c0 -5 20 -35 45 -66 l45 -58 0 -440 0 -440 -62 -64 -61
-64 389 2 389 3 47 69 c27 38 48 73 48 78 0 4 -119 8 -265 8 l-265 0 0 180 0
180 145 0 145 0 0 95 0 95 -145 0 -145 0 0 125 0 125 204 0 204 0 31 -35 c17
-19 33 -35 36 -35 3 0 5 56 5 125 l0 125 -395 0 c-217 0 -395 -4 -395 -8z"/>
<path d="M6127 2618 c55 -57 65 -96 70 -268 2 -85 0 -279 -5 -430 -9 -298 -15
-325 -70 -383 l-27 -29 320 4 c299 4 324 6 379 26 85 31 146 73 219 152 119
126 177 264 177 424 0 152 -42 264 -136 366 -64 68 -127 111 -210 142 -56 21
-78 22 -404 26 l-345 3 32 -33z m592 -156 c78 -25 146 -70 188 -126 55 -72 67
-116 67 -256 1 -117 -1 -129 -28 -187 -66 -143 -207 -216 -438 -230 l-108 -6
0 418 0 418 128 -6 c87 -3 147 -12 191 -25z"/>
<path d="M4850 2632 c0 -4 18 -26 40 -47 l40 -39 0 -472 0 -472 -61 -51 -61
-51 161 0 161 0 2 419 3 420 230 -250 c127 -138 303 -330 392 -427 89 -97 167
-178 172 -180 8 -3 11 161 11 531 l0 535 53 46 52 46 -147 0 -148 0 -1 -292
c-1 -161 -1 -301 0 -310 1 -10 0 -18 -2 -18 -3 0 -143 140 -313 310 l-308 310
-138 0 c-76 0 -138 -4 -138 -8z"/>
<path d="M7970 1699 c-19 -17 -75 -57 -125 -91 -49 -33 -92 -62 -95 -65 -3 -3
23 -3 58 0 140 14 244 97 216 171 -8 22 -14 20 -54 -15z"/>
<path d="M1725 1392 c-28 -22 -88 -92 -83 -98 19 -18 305 -24 1273 -24 1170 0
1202 -2 1319 -54 86 -38 140 -86 175 -158 17 -33 31 -70 31 -80 0 -11 4 -16
10 -13 6 3 10 15 10 26 0 63 93 175 183 218 119 58 48 55 1349 61 658 3 1200
8 1204 12 4 5 2 33 -5 63 l-12 55 -1032 -1 c-568 0 -1111 -4 -1207 -8 -276
-13 -405 -58 -460 -163 -14 -27 -27 -48 -30 -48 -3 1 -14 20 -26 43 -37 77
-125 124 -294 159 -65 13 -2389 23 -2405 10z"/>
</g>
</svg>
